# xmcd
#
# Track frame offsets:
#	182
#	11520
#	27792
#	43795
#	58682
#	75437
#	88522
#	108567
#	120867
#	136915
#
# Disc length: 2051 seconds
#
# Revision: 4
# Processed by: cddbd v1.5.2PL0 Copyright (c) Steve Scherf et al.
# Submitted via: EZCDAudioConverter 6.0.7.1
#
DISCID=6f08010a
DTITLE=Daron Norwood - Ready Willing And Able
DYEAR=1995
DGENRE=Country
TTITLE0=Bad Dog, No Biscuit
TTITLE1=Ready, Willing And Able
TTITLE2=When Mama Cried
TTITLE3=You Could've Heard A Heartbreak
TTITLE4=My Girl Friday
TTITLE5=Between The Stones And Jones
TTITLE6=Try Getting Over You
TTITLE7=Break The Radio
TTITLE8=I Can't Strike That Match
TTITLE9=There'll Always Be A Honky Tonk Somewhere
EXTD=
EXTT0=
EXTT1=
EXTT2=
EXTT3=
EXTT4=
EXTT5=
EXTT6=
EXTT7=
EXTT8=
EXTT9=
PLAYORDER=
